# xmcd
#
# Track frame offsets:
#  150
#  20775
#  41175
#  59967
#  80689
#  98945
#  117752
#  137997
#  156147
#  183279
#
# Disc length: 2682 seconds
#
# Revision: 0
# Processed by: cddbd v1.5.1PL2 Copyright (c) Steve Scherf et al.
# Submitted via: Collectorz.com_Music_Collector 6.11
#
DISCID=920a780a
DTITLE=Bobby Rush - Night Fishin'
DYEAR=2005
DGENRE=Blues
TTITLE0=Night Fishin'
TTITLE1=I'm Tired Of That Who Said Mess
TTITLE2=G-String
TTITLE3=If You Make One Step
TTITLE4=Who's Fooling Who
TTITLE5=Checkout Time
TTITLE6=Slip Trip Fell In Love
TTITLE7=Up In Here
TTITLE8=We Had Love
TTITLE9=Hot Air
EXTD=
EXTT0=
EXTT1=
EXTT2=
EXTT3=
EXTT4=
EXTT5=
EXTT6=
EXTT7=
EXTT8=
EXTT9=
PLAYORDER=
